<?xml version="1.0" encoding="UTF-8"?>
<svg id="Camada_1" xmlns="http://www.w3.org/2000/svg" version="1.1" viewBox="0 0 100 100">
  <!-- Generator: Adobe Illustrator 29.4.0, SVG Export Plug-In . SVG Version: 2.1.0 Build 152)  -->
  <path d="M63,87.7h-26c-3.9,0-7.5-1.5-10.3-4.3-2.7-2.7-4.3-6.4-4.3-10.3V29.5c0-.7.3-1.3.7-1.8.5-.5,1.1-.7,1.8-.7h50c.7,0,1.3.3,1.8.7.5.5.7,1.1.7,1.8v43.6c0,3.9-1.5,7.5-4.3,10.3-2.7,2.7-6.4,4.3-10.3,4.3h0ZM27.5,32v41.1c0,5.3,4.3,9.5,9.5,9.5h26c5.3,0,9.5-4.3,9.5-9.5V32H27.5Z"/>
  <path d="M84.7,32H15.3c-1.4,0-2.5-1.1-2.5-2.5s1.1-2.5,2.5-2.5h69.3c1.4,0,2.5,1.1,2.5,2.5s-1.1,2.5-2.5,2.5Z"/>
  <path d="M64.9,32h-29.7c-1.4,0-2.5-1.1-2.5-2.5v-2.6c0-3.9,1.5-7.5,4.3-10.3,2.7-2.7,6.4-4.3,10.3-4.3h5.7c3.9,0,7.5,1.5,10.3,4.3,2.7,2.7,4.3,6.4,4.3,10.3v2.6h0c0,.7-.3,1.3-.7,1.8-.5.5-1.1.7-1.8.7h0ZM37.6,27h24.7c0-5.3-4.3-9.6-9.5-9.6h-5.7c-5.3,0-9.5,4.3-9.5,9.5h0Z"/>
  <path d="M43.2,71.9c-1.4,0-2.5-1.1-2.5-2.5v-24.3c0-1.4,1.1-2.5,2.5-2.5s2.5,1.1,2.5,2.5v24.3c0,.7-.3,1.3-.7,1.8-.5.5-1.1.7-1.8.7h0Z"/>
  <path d="M57.5,71.9c-1.4,0-2.5-1.1-2.5-2.5v-24.3c0-1.4,1.1-2.5,2.5-2.5s2.5,1.1,2.5,2.5v24.3c0,.7-.3,1.3-.7,1.8-.5.5-1.1.7-1.8.7h0Z"/>
</svg>