<?xml version="1.0" encoding="UTF-8"?>
<svg id="Camada_1" xmlns="http://www.w3.org/2000/svg" version="1.1" viewBox="0 0 50 50">
  <!-- Generator: Adobe Illustrator 29.4.0, SVG Export Plug-In . SVG Version: 2.1.0 Build 152)  -->
  <defs>
    <style>
      .st0 {
        fill: #fff;
      }
    </style>
  </defs>
  <polygon class="st0" points="14 30.6 4.8 20.5 18.2 17.7 25 5.8 31.8 17.7 45.2 20.5 36 30.6 37.5 44.2 25 38.6 12.5 44.2 14 30.6"/>
  <path d="M25,9.9l4.6,8.1.9,1.6,1.8.4,9.1,1.9-6.2,6.9-1.2,1.3.2,1.8,1,9.2-8.5-3.8-1.6-.7-1.6.7-8.5,3.8,1-9.2.2-1.8-1.2-1.3-6.2-6.9,9.1-1.9,1.8-.4.9-1.6,4.6-8.1M25,1.8l-8.1,14.1L1,19.3l10.9,12.1-1.8,16.2,14.8-6.7,14.8,6.7-1.8-16.2,10.9-12.1-15.9-3.3L25,1.8h0Z"/>
</svg>